<svg xmlns="http://www.w3.org/2000/svg" width="202.023" height="202.023" viewBox="0 0 202.023 202.023">
  <g id="Icon_feather-instagram" data-name="Icon feather-instagram" transform="translate(-1.5 -1.5)">
    <path id="Path_1" data-name="Path 1" d="M52.756,3h99.512a49.756,49.756,0,0,1,49.756,49.756v99.512a49.756,49.756,0,0,1-49.756,49.756H52.756A49.756,49.756,0,0,1,3,152.267V52.756A49.756,49.756,0,0,1,52.756,3Z" fill="none" stroke="#104940" stroke-linecap="round" stroke-linejoin="round" stroke-width="3"/>
    <path id="Path_2" data-name="Path 2" d="M91.245,45.9A39.8,39.8,0,1,1,57.709,12.367,39.8,39.8,0,0,1,91.245,45.9Z" transform="translate(51.072 50.34)" fill="none" stroke="#104940" stroke-linecap="round" stroke-linejoin="round" stroke-width="3"/>
    <path id="Path_3" data-name="Path 3" d="M26.25,9.75h0" transform="translate(130.993 38.03)" fill="none" stroke="#104940" stroke-linecap="round" stroke-linejoin="round" stroke-width="3"/>
  </g>
</svg>
