<svg xmlns="http://www.w3.org/2000/svg" width="27.149" height="26.6" viewBox="0 0 27.149 26.6">
  <defs>
    <style>
      .cls-1 {
        fill: #104940;
      }
    </style>
  </defs>
  <path id="Icon_metro-cross" data-name="Icon metro-cross" class="cls-1" d="M29.472,23.3h0l-8.236-8.07,8.236-8.07h0a.822.822,0,0,0,0-1.175L25.581,2.171a.861.861,0,0,0-.9-.19.846.846,0,0,0-.3.19h0l-8.236,8.07L7.909,2.171h0a.845.845,0,0,0-.3-.19.861.861,0,0,0-.9.19L2.819,5.983a.822.822,0,0,0,0,1.175h0l8.236,8.07L2.819,23.3h0a.822.822,0,0,0,0,1.175l3.891,3.812a.861.861,0,0,0,.9.19.846.846,0,0,0,.3-.19h0l8.236-8.07,8.236,8.07h0a.846.846,0,0,0,.3.19.861.861,0,0,0,.9-.19l3.891-3.812a.822.822,0,0,0,0-1.175Z" transform="translate(-2.571 -1.928)"/>
</svg>
